#!OML:ASF X:\für Bonn\!DataBase\2005_08_10_Bjorn_Final\c3d\bjorn.ASF
:FULLY-SPECIFIED
:DEGREES
47
root -22.5466 18.5678 -27.2648 -173.574 -182.366 -177.238
lowerback -2.06329 2.16577 -6.90208
upperback 9.08668 4.12442 -6.98429
thorax 11.0338 1.80564 -3.23764
lowerneck -2.67592 0.25906 -0.540177
upperneck 12.5673 -0.0804098 4.14248
head 4.65129 0.14247 1.50251
rclavicle -2.22639e-014 4.6118e-014
rhumerus -35.8542 -6.09179 -99.3337
rradius 34.8859
rwrist -3.20831
rhand -15.226 14.4612
rfingers 7.12502
rthumb 10.9468 -15.2334
lclavicle -2.22639e-014 4.6118e-014
lhumerus -24.6061 -16.9817 87.165
lradius 57.0004
lwrist -10.7954
lhand -26.0411 -17.8515
lfingers 7.12502
lthumb 0.506042 12.1276
rfemur -24.1193 -11.1296 13.7081
rtibia 57.4954
rfoot -24.7271 9.81685
rtoes -15.5888
lfemur -8.29034 8.25315 -25.216
ltibia 34.9267
lfoot -28.0011 -2.89608
ltoes -13.2035
48
root -22.5284 18.55 -27.1905 -173.52 -182.414 -177.136
lowerback -1.95973 2.08155 -6.96563
upperback 9.17953 4.01347 -6.98992
thorax 11.074 1.74591 -3.22669
lowerneck -2.63722 0.272418 -0.527055
upperneck 12.2789 -0.0610472 4.19808
head 4.53736 0.151464 1.51506
rclavicle 1.59028e-015 -1.22451e-013
rhumerus -35.9199 -6.53058 -99.1431
rradius 33.9517
rwrist -3.00137
rhand -15.1564 14.5926
rfingers 7.12502
rthumb 11.0139 -15.0984
lclavicle 1.59028e-015 -1.22451e-013
lhumerus -23.8425 -17.171 87.077
lradius 57.7347
lwrist -10.4976
lhand -26.1928 -17.8421
lfingers 7.12502
lthumb 0.35952 12.1373
rfemur -25.1943 -11.0393 13.5983
rtibia 58.0898
rfoot -24.8521 9.92695
rtoes -16.0549
lfemur -8.0243 8.06015 -25.385
ltibia 34.8282
lfoot -28.1873 -2.64059
ltoes -13.2951
49
root -22.5107 18.5333 -27.1106 -173.508 -182.501 -177.05
lowerback -1.85725 1.97628 -7.04077
upperback 9.29995 3.87492 -6.96083
thorax 11.1428 1.66892 -3.17495
lowerneck -2.63826 0.297617 -0.56409
upperneck 12.0245 -0.0232165 4.25166
head 4.44407 0.167808 1.53765
rclavicle -1.59028e-015 0
rhumerus -35.9693 -6.86009 -98.9368
rradius 33.0118
rwrist -2.78942
rhand -15.138 14.6471
rfingers 7.12502
rthumb 11.0316 -15.043
lclavicle -1.59028e-015 0
lhumerus -23.0485 -17.3139 87.0079
lradius 58.494
lwrist -10.3525
lhand -26.3941 -17.781
lfingers 7.12502
lthumb 0.165077 12.1987
rfemur -26.1805 -10.9696 13.5109
rtibia 58.5759
rfoot -25.1203 9.85257
rtoes -16.7731
lfemur -7.68462 7.8494 -25.5115
ltibia 34.7123
lfoot -28.3789 -2.44395
ltoes -13.3821
50
root -22.4928 18.5139 -27.0294 -173.481 -182.609 -176.969
lowerback -1.76529 1.86074 -7.12807
upperback 9.42703 3.72347 -6.91105
thorax 11.2239 1.5829 -3.0951
lowerneck -2.75417 0.339667 -0.604305
upperneck 11.8704 0.0294313 4.34264
head 4.41044 0.195334 1.57699
rclavicle 1.27222e-014 -7.79236e-014
rhumerus -36.046 -7.23122 -98.6703
rradius 32.1261
rwrist -2.52481
rhand -15.0063 14.7015
rfingers 7.12502
rthumb 11.1587 -14.9818
lclavicle 1.27222e-014 -7.79236e-014
lhumerus -22.2569 -17.4876 86.9434
lradius 59.3607
lwrist -10.3054
lhand -26.6877 -17.5358
lfingers 7.12502
lthumb -0.118412 12.444
rfemur -27.1467 -10.899 13.4269
rtibia 58.9453
rfoot -25.4097 9.77692
rtoes -17.2352
lfemur -7.35601 7.64848 -25.6353
ltibia 34.6072
lfoot -28.5675 -2.21214
ltoes -13.4773
51
root -22.4743 18.4904 -26.9476 -173.469 -182.727 -176.864
lowerback -1.62471 1.74767 -7.21024
upperback 9.53634 3.56759 -6.87174
thorax 11.2566 1.4968 -3.03028
lowerneck -2.88831 0.381676 -0.655726
upperneck 11.7621 0.079778 4.44924
head 4.39732 0.222725 1.62457
rclavicle -1.43125e-014 3.18055e-014
rhumerus -36.1743 -7.59219 -98.3905
rradius 31.26
rwrist -2.18385
rhand -14.9113 14.6911
rfingers 7.12502
rthumb 11.2503 -14.9873
lclavicle -1.43125e-014 3.18055e-014
lhumerus -21.4637 -17.6832 86.8783
lradius 60.2946
lwrist -10.3057
lhand -27.0298 -17.3363
lfingers 7.12502
lthumb -0.448854 12.643
rfemur -28.0531 -10.8386 13.3186
rtibia 59.1971
rfoot -25.6918 9.63757
rtoes -17.6414
lfemur -7.01785 7.50278 -25.7757
ltibia 34.5259
lfoot -28.7705 -2.02042
ltoes -13.7841
